<?xml version="1.0" encoding="utf-8"?>
<!DOCTYPE svg PUBLIC "-//W3C//DTD SVG 20010904//EN" "http://www.w3.org/TR/2001/REC-SVG-20010904/DTD/svg10.dtd">
<svg version="1.0" xmlns="http://www.w3.org/2000/svg" width="80px" height="80px" viewBox="0 0 550 300" style="" preserveAspectRatio="xMidYMid meet">
<g fill="#62B6B7FF" stroke="#62B6B7FF">
<path d="M 291.000 107.049 C 263.775 140.002 240.551 168.136 239.392 169.570 L 237.284 172.177 216.471 147.037 C 196.505 122.920 195.586 121.971 193.894 123.699 C 192.923 124.689 159.916 164.425 120.544 212.000 L 48.959 298.500 299.563 298.752 C 468.821 298.922 550.058 298.674 549.830 297.989 C 549.119 295.858 342.562 47.003 341.557 47.068 C 340.976 47.106 318.225 74.097 291.000 107.049 M 422.938 180.895 C 465.346 232.263 499.908 274.425 499.744 274.590 C 499.579 274.754 467.854 264.432 429.244 251.651 L 359.043 228.414 346.704 210.928 L 334.365 193.442 348.682 185.555 C 356.557 181.217 363.000 177.359 363.000 176.983 C 363.000 176.606 358.275 172.071 352.500 166.905 L 342.000 157.513 342.000 120.534 C 342.000 84.070 342.027 83.583 343.917 85.528 C 344.971 86.613 380.531 129.528 422.938 180.895 M 218.246 185.750 C 259.706 235.670 291.170 274.164 290.808 274.525 C 290.386 274.947 198.123 245.456 197.305 244.638 C 197.007 244.340 199.516 239.198 202.882 233.211 C 206.247 227.224 209.000 222.108 209.000 221.842 C 209.000 221.576 206.075 219.015 202.500 216.150 L 196.000 210.941 196.000 185.471 C 196.000 171.462 196.193 160.000 196.430 160.000 C 196.666 160.000 206.483 171.588 218.246 185.750 "/></g>
<g fill="#331708FF" stroke="#331708FF">
<path d="M 326.500 5.036 C 317.700 7.130 310.350 8.879 310.166 8.922 C 309.982 8.965 311.266 10.811 313.019 13.024 C 315.200 15.778 315.908 17.434 315.263 18.274 C 309.391 25.913 237.606 111.988 237.136 111.954 C 236.786 111.929 227.275 100.705 216.000 87.012 C 200.497 68.185 195.227 62.407 194.378 63.308 C 193.761 63.964 162.054 102.300 123.918 148.500 C 85.781 194.700 42.521 247.050 27.783 264.834 C 13.045 282.618 1.241 297.581 1.552 298.084 C 1.863 298.588 8.319 299.000 15.898 299.000 L 29.677 299.000 112.435 199.000 C 157.952 144.000 195.344 99.000 195.529 99.000 C 195.714 99.000 205.151 110.250 216.500 124.000 C 227.849 137.750 237.255 149.000 237.401 149.000 C 237.547 149.000 258.776 123.380 284.576 92.067 L 331.486 35.134 334.373 38.637 C 335.961 40.563 337.611 41.771 338.039 41.320 C 338.644 40.684 341.553 22.942 344.306 3.104 C 344.413 2.336 344.050 1.600 343.500 1.468 C 342.950 1.336 335.300 2.942 326.500 5.036 "/></g>
</svg>
