<?xml version="1.0" encoding="utf-8"?>
<!DOCTYPE svg PUBLIC "-//W3C//DTD SVG 20010904//EN" "http://www.w3.org/TR/2001/REC-SVG-20010904/DTD/svg10.dtd">
<svg version="1.0" xmlns="http://www.w3.org/2000/svg" width="80px" height="80px" viewBox="0 0 553 301" style="" preserveAspectRatio="xMidYMid meet">
<g fill="#62B6B7FF" stroke="#62B6B7FF">
<path d="M 293.000 108.049 C 265.775 141.002 242.551 169.136 241.392 170.570 L 239.284 173.177 218.471 148.037 C 198.505 123.920 197.586 122.971 195.894 124.699 C 194.923 125.689 161.916 165.425 122.544 213.000 L 50.959 299.500 301.563 299.752 C 470.821 299.922 552.058 299.674 551.830 298.989 C 551.119 296.858 344.562 48.003 343.557 48.068 C 342.976 48.106 320.225 75.097 293.000 108.049 M 424.938 181.895 C 467.346 233.263 501.908 275.425 501.744 275.590 C 501.579 275.754 469.854 265.432 431.244 252.651 L 361.043 229.414 348.704 211.928 L 336.365 194.442 350.682 186.555 C 358.557 182.217 365.000 178.359 365.000 177.983 C 365.000 177.606 360.275 173.071 354.500 167.905 L 344.000 158.513 344.000 121.534 C 344.000 85.070 344.027 84.583 345.917 86.528 C 346.971 87.613 382.531 130.528 424.938 181.895 M 220.246 186.750 C 261.706 236.670 293.170 275.164 292.808 275.525 C 292.386 275.947 200.123 246.456 199.305 245.638 C 199.007 245.340 201.516 240.198 204.882 234.211 C 208.247 228.224 211.000 223.108 211.000 222.842 C 211.000 222.576 208.075 220.015 204.500 217.150 L 198.000 211.941 198.000 186.471 C 198.000 172.462 198.193 161.000 198.430 161.000 C 198.666 161.000 208.483 172.588 220.246 186.750 "/></g>
<g fill="#CDCDCDFF" stroke="#CDCDCDFF">
<path d="M 329.000 4.861 C 320.475 6.865 312.926 8.875 312.225 9.327 C 311.265 9.946 311.723 11.125 314.078 14.098 C 316.249 16.840 316.910 18.422 316.239 19.274 C 313.994 22.121 241.608 109.617 240.500 110.822 C 239.520 111.888 235.557 107.640 219.972 88.822 C 209.350 75.995 199.905 64.681 198.982 63.681 C 197.388 61.951 193.694 66.231 123.903 150.679 C 83.531 199.529 39.365 252.932 25.756 269.354 C 12.147 285.775 1.261 299.613 1.565 300.105 C 1.869 300.597 8.796 301.000 16.958 301.000 L 31.798 301.000 41.209 289.750 C 46.385 283.563 83.165 239.125 122.942 191.000 C 162.719 142.875 195.784 102.936 196.420 102.247 C 197.322 101.271 201.918 106.257 217.236 124.831 C 228.048 137.941 237.554 149.215 238.360 149.884 C 239.590 150.905 245.504 144.213 275.113 108.300 C 294.521 84.760 315.544 59.281 321.829 51.679 L 333.258 37.858 336.471 40.972 C 339.000 43.423 339.908 43.811 340.736 42.793 C 342.384 40.766 347.787 3.187 346.600 2.000 C 346.050 1.450 345.353 1.049 345.050 1.108 C 344.748 1.168 337.525 2.856 329.000 4.861 "/></g>
</svg>
